<svg xmlns="http://www.w3.org/2000/svg" viewBox="0 0 1200 360" width="1200" height="360" role="img"><defs><linearGradient id="bg" x1="0" y1="0" x2="1" y2="1"><stop offset="0" stop-color="#0d0d10"/><stop offset="1" stop-color="#e01327"/></linearGradient><radialGradient id="gl" cx="0.5" cy="0.35" r="0.75"><stop offset="0" stop-color="#ff5065" stop-opacity="0.35"/><stop offset="1" stop-color="#ff5065" stop-opacity="0"/></radialGradient></defs><rect width="1200" height="360" fill="url(#bg)"/><rect width="1200" height="360" fill="url(#gl)"/><circle cx="951" cy="44" r="48" fill="#ff5065" opacity="0.069"/><circle cx="521" cy="328" r="62" fill="#ff5065" opacity="0.08"/><circle cx="-2" cy="63" r="124" fill="#ff5065" opacity="0.051"/><circle cx="81" cy="393" r="94" fill="#ff5065" opacity="0.108"/><circle cx="980" cy="-33" r="148" fill="#ff5065" opacity="0.066"/><circle cx="998" cy="238" r="76" fill="#ff5065" opacity="0.068"/><circle cx="708" cy="309" r="55" fill="#ff5065" opacity="0.069"/><line x1="0" y1="282" x2="1200" y2="292" stroke="#ff5065" stroke-width="1" opacity="0.05"/><line x1="0" y1="310" x2="1200" y2="312" stroke="#ff5065" stroke-width="1" opacity="0.05"/><line x1="0" y1="196" x2="1200" y2="220" stroke="#ff5065" stroke-width="1" opacity="0.05"/><rect y="50" width="1200" height="260" fill="#000000" opacity="0.20"/><text x="600" y="148" text-anchor="middle" font-family="&#39;Segoe UI&#39;,&#39;Arial&#39;,sans-serif" font-size="78" font-weight="700" fill="#ffffff" textLength="936.0" lengthAdjust="spacingAndGlyphs">Revo Uninstaller Pro</text><text x="600" y="230.7" text-anchor="middle" font-family="&#39;Segoe UI&#39;,&#39;Arial&#39;,sans-serif" font-size="78" font-weight="700" fill="#ffffff" textLength="982.8" lengthAdjust="spacingAndGlyphs">Full Version Download</text><rect x="530" y="252.7" width="140" height="4" rx="2" fill="#ff5065"/><text x="600" y="290.7" text-anchor="middle" font-family="&#39;Segoe UI&#39;,&#39;Arial&#39;,sans-serif" font-size="28.0" font-weight="400" fill="#ffffff" fill-opacity="0.85" textLength="1050.0" lengthAdjust="spacingAndGlyphs">Download and install Revo Uninstaller Pro full version for thorough sof…</text></svg>